<svg xmlns="http://www.w3.org/2000/svg" xmlns:xlink="http://www.w3.org/1999/xlink" width="2000" zoomAndPan="magnify" viewBox="0 0 1500 1499.999933" height="2000" preserveAspectRatio="xMidYMid meet" version="1.0"><defs><g/><clipPath id="42e8db1a2d"><path d="M 62.25 48.363281 L 1451.636719 48.363281 L 1451.636719 1437.75 L 62.25 1437.75 Z M 62.25 48.363281 " clip-rule="nonzero"/></clipPath><clipPath id="1dcc113614"><path d="M 756.945312 48.363281 C 373.277344 48.363281 62.25 359.386719 62.25 743.054688 C 62.25 1126.722656 373.277344 1437.75 756.945312 1437.75 C 1140.613281 1437.75 1451.636719 1126.722656 1451.636719 743.054688 C 1451.636719 359.386719 1140.613281 48.363281 756.945312 48.363281 Z M 756.945312 48.363281 " clip-rule="nonzero"/></clipPath><clipPath id="f14c87e011"><path d="M 0.25 0.363281 L 1389.636719 0.363281 L 1389.636719 1389.75 L 0.25 1389.75 Z M 0.25 0.363281 " clip-rule="nonzero"/></clipPath><clipPath id="e58bd46933"><path d="M 694.945312 0.363281 C 311.277344 0.363281 0.25 311.386719 0.25 695.054688 C 0.25 1078.722656 311.277344 1389.75 694.945312 1389.75 C 1078.613281 1389.75 1389.636719 1078.722656 1389.636719 695.054688 C 1389.636719 311.386719 1078.613281 0.363281 694.945312 0.363281 Z M 694.945312 0.363281 " clip-rule="nonzero"/></clipPath><clipPath id="90a714c2a7"><rect x="0" width="1390" y="0" height="1390"/></clipPath><clipPath id="fef6c5ac23"><path d="M 386.667969 1154 L 449.667969 1154 L 449.667969 1226 L 386.667969 1226 Z M 386.667969 1154 " clip-rule="nonzero"/></clipPath><clipPath id="a2564b067a"><path d="M 1059.175781 1154 L 1122 1154 L 1122 1226 L 1059.175781 1226 Z M 1059.175781 1154 " clip-rule="nonzero"/></clipPath><clipPath id="9875b2e73a"><path d="M 0.175781 0.160156 L 62.761719 0.160156 L 62.761719 71.679688 L 0.175781 71.679688 Z M 0.175781 0.160156 " clip-rule="nonzero"/></clipPath><clipPath id="4fe691da03"><rect x="0" width="63" y="0" height="72"/></clipPath><clipPath id="cb213c97bc"><path d="M 923.3125 211 L 1059 211 L 1059 366 L 923.3125 366 Z M 923.3125 211 " clip-rule="nonzero"/></clipPath></defs><g clip-path="url(#42e8db1a2d)"><g clip-path="url(#1dcc113614)"><g transform="matrix(1, 0, 0, 1, 62, 48)"><g clip-path="url(#90a714c2a7)"><g clip-path="url(#f14c87e011)"><g clip-path="url(#e58bd46933)"><path fill="#f5ebcd" d="M 0.25 0.363281 L 1389.636719 0.363281 L 1389.636719 1389.75 L 0.25 1389.75 Z M 0.25 0.363281 " fill-opacity="1" fill-rule="nonzero"/></g></g></g></g></g></g><g fill="#005c36" fill-opacity="1"><g transform="translate(302.075378, 314.662247)"><g><path d="M 55.890625 91.1875 C 46.617188 102.320312 37.738281 109.867188 29.25 113.828125 C 20.757812 117.785156 13.234375 119.867188 6.671875 120.078125 C 1.316406 120.191406 -4.097656 119.425781 -9.578125 117.78125 C -15.066406 116.132812 -20.632812 112.957031 -26.28125 108.25 C -30.457031 104.78125 -34.03125 100.210938 -37 94.546875 C -39.976562 88.878906 -41.601562 83.367188 -41.875 78.015625 C -42.238281 72.304688 -42.1875 67.253906 -41.71875 62.859375 C -41.25 58.472656 -39.613281 53.390625 -36.8125 47.609375 C -34.019531 41.835938 -29.554688 35.269531 -23.421875 27.90625 C -18.796875 22.332031 -13.972656 17.820312 -8.953125 14.375 C -3.929688 10.925781 0.0859375 10.460938 3.109375 12.984375 C 4.335938 14.003906 4.84375 15.351562 4.625 17.03125 C 4.40625 18.71875 3.75 20.21875 2.65625 21.53125 C 2.039062 22.269531 1.585938 22.726562 1.296875 22.90625 C 6.234375 27.976562 11.734375 33.035156 17.796875 38.078125 C 24.578125 43.734375 30.332031 48.253906 35.0625 51.640625 C 39.800781 55.023438 44.617188 58.269531 49.515625 61.375 C 50.148438 61.769531 51.898438 62.910156 54.765625 64.796875 C 57.628906 66.691406 60.410156 68.765625 63.109375 71.015625 C 64.828125 72.453125 65.5625 74.523438 65.3125 77.234375 C 65.070312 79.941406 64.203125 82.195312 62.703125 84 C 61.816406 85.0625 60.539062 86.421875 58.875 88.078125 C 57.5 89.421875 56.503906 90.457031 55.890625 91.1875 Z M -9.21875 34.296875 C -11.1875 35.992188 -13.503906 38.441406 -16.171875 41.640625 C -20.660156 47.035156 -23.789062 53.085938 -25.5625 59.796875 C -27.332031 66.503906 -27.414062 73.015625 -25.8125 79.328125 C -24.207031 85.648438 -20.75 91.019531 -15.4375 95.4375 C -9.863281 100.082031 -4.296875 103.054688 1.265625 104.359375 C 6.828125 105.660156 12.582031 105.320312 18.53125 103.34375 C 22.925781 101.882812 27.394531 99.300781 31.9375 95.59375 C 36.476562 91.894531 41.34375 86.929688 46.53125 80.703125 C 44.5625 79.066406 42.003906 77.148438 38.859375 74.953125 C 37.867188 74.128906 36.078125 72.78125 33.484375 70.90625 C 23.585938 63.488281 15.734375 57.363281 9.921875 52.53125 C 1.484375 45.507812 -4.894531 39.429688 -9.21875 34.296875 Z M -9.21875 34.296875 "/></g></g></g><g fill="#005c36" fill-opacity="1"><g transform="translate(202.343981, 451.150591)"><g><path d="M 47.515625 25.921875 C 47.847656 25.128906 48.460938 24.546875 49.359375 24.171875 C 50.265625 23.804688 51.160156 23.8125 52.046875 24.1875 C 54.304688 25.132812 56.003906 27 57.140625 29.78125 C 57.179688 30.5 57.171875 31.882812 57.109375 33.9375 C 57.054688 36 56.742188 37.71875 56.171875 39.09375 C 54.597656 42.820312 52.3125 45.4375 49.3125 46.9375 C 46.3125 48.445312 42.945312 48.421875 39.21875 46.859375 C 38.132812 46.398438 35.90625 45.226562 32.53125 43.34375 C 28.570312 41.21875 25.460938 39.679688 23.203125 38.734375 C 16.335938 35.835938 10.40625 34.429688 5.40625 34.515625 C 3.738281 34.617188 2.203125 35.238281 0.796875 36.375 C -0.609375 37.519531 -1.5625 38.6875 -2.0625 39.875 C -3.257812 42.707031 -3.738281 45.21875 -3.5 47.40625 C -3.257812 49.59375 -2.492188 52.171875 -1.203125 55.140625 C 0.0859375 58.117188 1.972656 60.503906 4.453125 62.296875 C 6.929688 64.085938 10.507812 66.144531 15.1875 68.46875 C 18.25 69.976562 20.476562 71.144531 21.875 71.96875 C 26.375 74.445312 30.289062 76.390625 33.625 77.796875 C 35.78125 78.703125 37.320312 80.039062 38.25 81.8125 C 39.1875 83.59375 39.222656 85.519531 38.359375 87.59375 C 37.859375 88.757812 36.914062 89.945312 35.53125 91.15625 C 34.15625 92.363281 32.875 93.007812 31.6875 93.09375 C 30.457031 93.269531 28.710938 92.882812 26.453125 91.9375 C 25.273438 91.4375 24.207031 90.8125 23.25 90.0625 C 21.09375 88.34375 18.296875 86.757812 14.859375 85.3125 L 7.140625 82.234375 C 0.171875 79.304688 -5.1875 77.628906 -8.9375 77.203125 C -10.707031 77.023438 -12.585938 77.035156 -14.578125 77.234375 C -16.578125 77.429688 -18.285156 77.703125 -19.703125 78.046875 C -22.679688 79.097656 -24.710938 79.738281 -25.796875 79.96875 C -26.878906 80.207031 -27.804688 80.160156 -28.578125 79.828125 C -29.765625 79.335938 -30.632812 78.304688 -31.1875 76.734375 C -31.75 75.171875 -31.765625 73.753906 -31.234375 72.484375 C -29.703125 68.859375 -27.148438 66.234375 -23.578125 64.609375 C -20.015625 62.992188 -16 62.375 -11.53125 62.75 C -13.945312 57.8125 -15.734375 53.421875 -16.890625 49.578125 C -17.429688 47.035156 -17.421875 44.203125 -16.859375 41.078125 C -16.304688 37.960938 -15.429688 34.988281 -14.234375 32.15625 C -12.617188 28.320312 -9.410156 25.101562 -4.609375 22.5 C 0.179688 19.894531 4.925781 18.773438 9.625 19.140625 C 9.863281 19.117188 10.765625 19.175781 12.328125 19.3125 C 13.890625 19.445312 16.046875 20.09375 18.796875 21.25 C 22.421875 22.78125 26.898438 24.898438 32.234375 27.609375 C 35.640625 29.398438 38.816406 30.914062 41.765625 32.15625 C 42.648438 32.53125 43.519531 32.519531 44.375 32.125 C 45.226562 31.738281 45.820312 31.15625 46.15625 30.375 C 46.40625 29.78125 46.609375 29.082031 46.765625 28.28125 C 46.929688 27.476562 47.179688 26.691406 47.515625 25.921875 Z M 47.515625 25.921875 "/></g></g></g><g fill="#005c36" fill-opacity="1"><g transform="translate(152.582791, 592.529198)"><g><path d="M -35.765625 21.265625 C -35.222656 17.265625 -34.109375 14.003906 -32.421875 11.484375 C -30.734375 8.960938 -28.878906 7.171875 -26.859375 6.109375 C -24.835938 5.046875 -23.140625 4.609375 -21.765625 4.796875 C -19.972656 5.035156 -18.660156 5.851562 -17.828125 7.25 C -16.992188 8.65625 -16.695312 10.257812 -16.9375 12.0625 C -17.082031 13.113281 -17.535156 14.066406 -18.296875 14.921875 C -19.066406 15.785156 -19.507812 16.269531 -19.625 16.375 C -20.257812 17.03125 -20.8125 17.703125 -21.28125 18.390625 C -21.75 19.078125 -22.039062 19.84375 -22.15625 20.6875 C -22.46875 23.007812 -21.191406 25.117188 -18.328125 27.015625 C -15.472656 28.910156 -10.710938 31.054688 -4.046875 33.453125 C 3.566406 29.660156 11.0625 26.648438 18.4375 24.421875 L 27.34375 21.921875 C 28.675781 21.566406 32.164062 20.5625 37.8125 18.90625 C 43.46875 17.25 48.515625 15.539062 52.953125 13.78125 C 56.109375 12.695312 58.210938 12.226562 59.265625 12.375 C 61.910156 12.738281 63.738281 13.925781 64.75 15.9375 C 65.757812 17.957031 66.097656 20.179688 65.765625 22.609375 C 65.535156 24.304688 65.019531 25.554688 64.21875 26.359375 C 63.414062 27.171875 62.035156 28.03125 60.078125 28.9375 C 54.609375 31.3125 46.5625 33.601562 35.9375 35.8125 C 29.851562 37.144531 25.21875 38.238281 22.03125 39.09375 C 18.851562 39.957031 15.613281 41.082031 12.3125 42.46875 C 16.175781 44.8125 22.878906 48.03125 32.421875 52.125 C 37.898438 54.582031 42.28125 56.597656 45.5625 58.171875 C 48.84375 59.742188 51.816406 61.410156 54.484375 63.171875 C 56.242188 64.378906 57.609375 65.773438 58.578125 67.359375 C 59.546875 68.941406 59.910156 70.628906 59.671875 72.421875 C 59.429688 74.210938 58.507812 76.046875 56.90625 77.921875 C 55.300781 79.804688 53.609375 80.625 51.828125 80.375 C 50.765625 80.238281 49.546875 79.695312 48.171875 78.75 C 39.234375 73.351562 30.773438 68.53125 22.796875 64.28125 C 14.828125 60.03125 6.023438 55.800781 -3.609375 51.59375 C -8.972656 49.144531 -14.0625 46.648438 -18.875 44.109375 C -23.695312 41.578125 -26.632812 39.863281 -27.6875 38.96875 C -30.363281 36.457031 -32.5 33.75 -34.09375 30.84375 C -35.6875 27.945312 -36.242188 24.753906 -35.765625 21.265625 Z M -35.765625 21.265625 "/></g></g></g><g fill="#005c36" fill-opacity="1"><g transform="translate(140.895118, 729.556226)"><g><path d="M 14.421875 83.15625 C 16.023438 81.519531 17.832031 80.070312 19.84375 78.8125 C 21.863281 77.550781 24.332031 76.175781 27.25 74.6875 C 27.75 74.394531 29.242188 73.554688 31.734375 72.171875 C 34.222656 70.796875 36.320312 69.332031 38.03125 67.78125 C 36.125 61.28125 34.867188 55.921875 34.265625 51.703125 C 33.929688 49.378906 33.640625 46.8125 33.390625 44 C 33.140625 41.1875 32.914062 39.09375 32.71875 37.71875 C 32.382812 32.394531 31.988281 28.148438 31.53125 24.984375 C 29.664062 23.960938 27.71875 23.140625 25.6875 22.515625 C 23.65625 21.898438 20.644531 21.179688 16.65625 20.359375 C 10.90625 19.253906 6.769531 18.179688 4.25 17.140625 C 2.53125 16.421875 1.472656 14.691406 1.078125 11.953125 C 0.734375 9.628906 0.921875 7.421875 1.640625 5.328125 C 2.359375 3.234375 3.617188 2.054688 5.421875 1.796875 C 9.554688 2.054688 13.992188 2.785156 18.734375 3.984375 C 23.484375 5.179688 29.847656 6.984375 37.828125 9.390625 L 54.25 13.484375 C 63.601562 15.679688 71.65625 17.769531 78.40625 19.75 C 85.15625 21.738281 93.1875 24.484375 102.5 27.984375 C 103.863281 28.429688 105.097656 29.328125 106.203125 30.671875 C 107.316406 32.015625 108.003906 33.582031 108.265625 35.375 C 108.546875 37.375 108.617188 38.835938 108.484375 39.765625 C 108.347656 40.703125 108.03125 41.476562 107.53125 42.09375 C 107.03125 42.707031 105.957031 43.675781 104.3125 45 C 99.238281 49.375 93.9375 53.28125 88.40625 56.71875 C 82.882812 60.15625 75.191406 64.628906 65.328125 70.140625 L 57.4375 74.6875 C 50.269531 78.726562 44.285156 82.195312 39.484375 85.09375 C 34.679688 88 30.363281 91.070312 26.53125 94.3125 C 24.03125 96.382812 22.253906 97.5 21.203125 97.65625 C 18.679688 98.019531 16.648438 97.535156 15.109375 96.203125 C 13.566406 94.867188 12.625 92.988281 12.28125 90.5625 C 11.832031 87.5 12.546875 85.03125 14.421875 83.15625 Z M 50.34375 61.328125 C 53.675781 59.128906 59.546875 55.804688 67.953125 51.359375 C 76.960938 46.710938 84.03125 42.359375 89.15625 38.296875 C 83.800781 37.023438 76.835938 35.019531 68.265625 32.28125 C 62.929688 30.351562 55.328125 28.382812 45.453125 26.375 C 45.585938 33.238281 46.21875 40.570312 47.34375 48.375 C 48.144531 53.96875 49.144531 58.285156 50.34375 61.328125 Z M 50.34375 61.328125 "/></g></g></g><g fill="#005c36" fill-opacity="1"><g transform="translate(174.593203, 891.563137)"><g><path d="M 45.578125 68.46875 C 45.617188 69.03125 45.742188 69.910156 45.953125 71.109375 C 46.160156 72.304688 46.226562 73.210938 46.15625 73.828125 C 46.082031 74.453125 45.757812 74.898438 45.1875 75.171875 C 42.90625 76.347656 40.597656 76.394531 38.265625 75.3125 C 35.941406 74.226562 34.21875 72.476562 33.09375 70.0625 C 31.332031 66.300781 30.96875 62.878906 32 59.796875 C 33.039062 56.722656 35.410156 53.738281 39.109375 50.84375 C 40.566406 49.695312 42.742188 48.445312 45.640625 47.09375 C 47.285156 46.320312 49.988281 45.175781 53.75 43.65625 C 57.695312 42.039062 60.828125 40.695312 63.140625 39.625 C 66.515625 38.039062 69.039062 35.707031 70.71875 32.625 C 72.394531 29.539062 72.445312 26.316406 70.875 22.953125 C 69.925781 20.921875 68.328125 19.078125 66.078125 17.421875 C 63.835938 15.773438 61.644531 14.921875 59.5 14.859375 C 56.03125 14.722656 52.519531 15.128906 48.96875 16.078125 C 42.675781 17.722656 36.394531 20.015625 30.125 22.953125 C 27.132812 24.347656 24.835938 25.476562 23.234375 26.34375 C 22.847656 26.519531 22.113281 26.890625 21.03125 27.453125 C 19.945312 28.023438 18.890625 28.40625 17.859375 28.59375 C 16.835938 28.789062 15.800781 28.773438 14.75 28.546875 C 14.050781 28.285156 13.296875 27.726562 12.484375 26.875 C 11.671875 26.019531 11.0625 25.15625 10.65625 24.28125 C 10.019531 22.9375 9.804688 20.976562 10.015625 18.40625 C 10.234375 15.84375 10.992188 14.078125 12.296875 13.109375 L 14.703125 11.828125 C 15.566406 11.421875 16.625 11.039062 17.875 10.6875 C 25.164062 8.695312 31.320312 6.53125 36.34375 4.1875 C 38.5625 3.144531 40.273438 2.28125 41.484375 1.59375 L 48.21875 -1.734375 C 50.53125 -2.816406 52.5 -4.441406 54.125 -6.609375 C 55.757812 -8.773438 56.21875 -10.628906 55.5 -12.171875 C 55.269531 -12.660156 54.785156 -13.257812 54.046875 -13.96875 C 53.304688 -14.6875 52.800781 -15.332031 52.53125 -15.90625 C 52.082031 -16.875 52.078125 -18.132812 52.515625 -19.6875 C 52.960938 -21.25 53.710938 -22.273438 54.765625 -22.765625 C 56.796875 -23.710938 58.753906 -23.8125 60.640625 -23.0625 C 62.484375 -22.15625 64.066406 -21.15625 65.390625 -20.0625 C 66.722656 -18.976562 67.816406 -17.519531 68.671875 -15.6875 C 69.390625 -14.144531 69.832031 -12.820312 70 -11.71875 C 70.164062 -10.625 70.144531 -9.03125 69.9375 -6.9375 C 69.863281 -5.84375 69.273438 -4.332031 68.171875 -2.40625 C 67.078125 -0.488281 65.21875 1.550781 62.59375 3.71875 C 68.382812 4.070312 73.085938 5.664062 76.703125 8.5 C 80.328125 11.332031 83.492188 15.644531 86.203125 21.4375 C 87.234375 23.65625 87.625 26.378906 87.375 29.609375 C 87.125 32.847656 86.460938 35.832031 85.390625 38.5625 C 84.085938 41.289062 82.132812 43.96875 79.53125 46.59375 C 76.9375 49.21875 74.390625 51.113281 71.890625 52.28125 C 70.441406 52.957031 68.03125 53.960938 64.65625 55.296875 C 61.90625 56.234375 59.085938 57.375 56.203125 58.71875 C 49.453125 61.875 45.910156 65.125 45.578125 68.46875 Z M 45.578125 68.46875 "/></g></g></g><g fill="#005c36" fill-opacity="1"><g transform="translate(247.217774, 1025.770357)"><g><path d="M 94.75 -45.375 C 92.65625 -43.550781 90.179688 -41.472656 87.328125 -39.140625 C 84.472656 -36.816406 82.285156 -35.066406 80.765625 -33.890625 C 76.472656 -30.578125 72.269531 -27.140625 68.15625 -23.578125 C 65.101562 -20.929688 62.03125 -18.054688 58.9375 -14.953125 C 64.71875 -15.609375 69.707031 -15.21875 73.90625 -13.78125 C 78.113281 -12.34375 81.992188 -9.578125 85.546875 -5.484375 C 88.128906 -2.503906 89.207031 1.425781 88.78125 6.3125 C 88.363281 11.195312 86.695312 15.535156 83.78125 19.328125 C 80.875 22.285156 77.164062 25.722656 72.65625 29.640625 C 69.757812 32.148438 66.113281 35.582031 61.71875 39.9375 C 60.09375 41.644531 58.84375 43.539062 57.96875 45.625 C 57.101562 47.71875 57.296875 49.488281 58.546875 50.9375 C 59.179688 51.664062 59.734375 52.210938 60.203125 52.578125 C 60.671875 52.953125 61.078125 53.34375 61.421875 53.75 C 62.398438 54.875 62.796875 55.898438 62.609375 56.828125 C 62.429688 57.753906 61.816406 58.671875 60.765625 59.578125 C 58.835938 61.253906 56.550781 61.546875 53.90625 60.453125 C 51.269531 59.359375 49.253906 58.003906 47.859375 56.390625 C 42.828125 50.597656 41.789062 44.53125 44.75 38.1875 C 46.425781 34.601562 49.320312 30.742188 53.4375 26.609375 C 57.550781 22.484375 62.539062 17.875 68.40625 12.78125 C 74.195312 7.757812 75.378906 3.28125 71.953125 -0.65625 C 70.078125 -2.832031 67.03125 -4.03125 62.8125 -4.25 C 58.601562 -4.476562 54 -3.691406 49 -1.890625 C 44 -0.0976562 39.488281 2.539062 35.46875 6.03125 L 23.015625 17.03125 C 21.242188 18.5625 19.34375 19.007812 17.3125 18.375 C 15.289062 17.75 13.753906 16.832031 12.703125 15.625 C 11.160156 13.851562 10.304688 11.769531 10.140625 9.375 C 9.972656 6.988281 10.570312 5.203125 11.9375 4.015625 C 18.46875 -0.660156 28.8125 -9.132812 42.96875 -21.40625 C 45.550781 -23.644531 54.914062 -32.113281 71.0625 -46.8125 L 81.859375 -56.828125 C 83.617188 -58.359375 85.859375 -58.894531 88.578125 -58.4375 C 91.304688 -57.976562 93.546875 -56.738281 95.296875 -54.71875 C 96.828125 -52.945312 97.535156 -51.3125 97.421875 -49.8125 C 97.316406 -48.3125 96.425781 -46.832031 94.75 -45.375 Z M 94.75 -45.375 "/></g></g></g><g fill="#df5d04" fill-opacity="1"><g transform="translate(527.496291, 1316.669143)"><g><path d="M 117.578125 -62.296875 C 118.609375 -59.867188 119.265625 -57.96875 119.546875 -56.59375 C 119.835938 -55.21875 119.820312 -53.988281 119.5 -52.90625 C 119.101562 -51.613281 117.804688 -50.359375 115.609375 -49.140625 C 113.421875 -47.921875 111.519531 -47.554688 109.90625 -48.046875 C 107.75 -48.691406 106.125 -49.53125 105.03125 -50.5625 C 103.9375 -51.601562 103.171875 -52.953125 102.734375 -54.609375 C 101.785156 -57.722656 100.359375 -60.597656 98.453125 -63.234375 C 96.554688 -65.867188 92.96875 -67.984375 87.6875 -69.578125 C 83.164062 -70.953125 77.710938 -71.484375 71.328125 -71.171875 C 64.941406 -70.867188 60.0625 -69.582031 56.6875 -67.3125 C 53.707031 -65.28125 50.601562 -61.75 47.375 -56.71875 C 44.15625 -51.695312 41.765625 -46.601562 40.203125 -41.4375 C 38.316406 -35.1875 37.957031 -29.035156 39.125 -22.984375 C 40.300781 -16.929688 43.023438 -11.554688 47.296875 -6.859375 C 51.578125 -2.160156 57.378906 1.296875 64.703125 3.515625 C 68.679688 4.722656 73.035156 5.1875 77.765625 4.90625 C 82.492188 4.632812 86.953125 3.191406 91.140625 0.578125 L 90.984375 0.53125 C 93.554688 -0.914062 96.289062 -1.203125 99.1875 -0.328125 C 100.914062 0.191406 102.328125 1.441406 103.421875 3.421875 C 104.523438 5.398438 104.847656 7.140625 104.390625 8.640625 C 103.898438 10.253906 103.226562 11.609375 102.375 12.703125 C 101.519531 13.796875 100.21875 14.90625 98.46875 16.03125 C 92.5625 19.644531 86.316406 21.457031 79.734375 21.46875 C 73.148438 21.476562 65.65625 20.210938 57.25 17.671875 C 49.820312 15.421875 42.847656 11.367188 36.328125 5.515625 C 29.804688 -0.328125 25.269531 -6.398438 22.71875 -12.703125 C 21.507812 -16.472656 20.789062 -21.59375 20.5625 -28.0625 C 20.34375 -34.539062 20.789062 -39.613281 21.90625 -43.28125 C 24.738281 -52.644531 28.859375 -61.117188 34.265625 -68.703125 C 39.671875 -76.296875 45.992188 -81.765625 53.234375 -85.109375 C 58.046875 -87.410156 64.265625 -88.347656 71.890625 -87.921875 C 79.523438 -87.492188 86.300781 -86.382812 92.21875 -84.59375 C 99.425781 -82.414062 104.804688 -79.703125 108.359375 -76.453125 C 111.910156 -73.203125 114.984375 -68.484375 117.578125 -62.296875 Z M 117.578125 -62.296875 "/></g></g></g><g fill="#df5d04" fill-opacity="1"><g transform="translate(697.860718, 1356.642326)"><g><path d="M 85.78125 -7.546875 C 85.769531 -5.078125 84.4375 -3.003906 81.78125 -1.328125 C 79.125 0.335938 76.671875 1.164062 74.421875 1.15625 C 70.148438 1.125 66.75 0.566406 64.21875 -0.515625 C 61.695312 -1.597656 59.378906 -3.609375 57.265625 -6.546875 C 54.316406 -3.972656 50.304688 -2.054688 45.234375 -0.796875 C 40.171875 0.460938 35.5 1.078125 31.21875 1.046875 C 24.25 1.003906 18.519531 -0.914062 14.03125 -4.71875 C 9.550781 -8.519531 7.335938 -14.078125 7.390625 -21.390625 C 7.410156 -24.535156 8.269531 -27.425781 9.96875 -30.0625 C 11.675781 -32.695312 14 -35.015625 16.9375 -37.015625 C 20.226562 -39.128906 23.957031 -40.765625 28.125 -41.921875 C 32.289062 -43.078125 36.625 -43.640625 41.125 -43.609375 C 43.488281 -43.597656 46.296875 -43.128906 49.546875 -42.203125 C 52.804688 -41.285156 55.332031 -40.3125 57.125 -39.28125 L 57.15625 -41.984375 C 57.1875 -48.054688 55.742188 -52.253906 52.828125 -54.578125 C 49.921875 -56.910156 45.207031 -58.097656 38.6875 -58.140625 C 36.769531 -58.148438 34.878906 -57.769531 33.015625 -57 C 31.160156 -56.226562 29.046875 -55.171875 26.671875 -53.828125 C 23.515625 -52.160156 20.53125 -51.335938 17.71875 -51.359375 C 16.695312 -51.359375 15.738281 -52.066406 14.84375 -53.484375 C 13.957031 -54.898438 13.519531 -56.171875 13.53125 -57.296875 C 13.550781 -60.566406 15.117188 -63.367188 18.234375 -65.703125 C 21.347656 -68.046875 25.039062 -69.789062 29.3125 -70.9375 C 33.59375 -72.09375 37.421875 -72.660156 40.796875 -72.640625 C 44.171875 -72.617188 48.050781 -71.945312 52.4375 -70.625 C 56.820312 -69.3125 60.410156 -67.519531 63.203125 -65.25 C 66.554688 -62.300781 69.148438 -58.878906 70.984375 -54.984375 C 72.816406 -51.085938 73.71875 -46.835938 73.6875 -42.234375 C 73.675781 -40.765625 73.550781 -38.566406 73.3125 -35.640625 C 73.0625 -32.492188 72.929688 -29.796875 72.921875 -27.546875 C 72.910156 -26.535156 72.789062 -25.015625 72.5625 -22.984375 C 72.3125 -20.515625 72.179688 -18.546875 72.171875 -17.078125 C 72.160156 -15.734375 72.65625 -14.578125 73.65625 -13.609375 C 74.664062 -12.648438 75.847656 -12.164062 77.203125 -12.15625 L 81.921875 -12.296875 C 83.160156 -12.285156 84.113281 -11.828125 84.78125 -10.921875 C 85.457031 -10.023438 85.789062 -8.898438 85.78125 -7.546875 Z M 31.46875 -12.28125 C 36.300781 -12.25 40.351562 -12.726562 43.625 -13.71875 C 46.894531 -14.71875 50.847656 -16.550781 55.484375 -19.21875 C 55.941406 -21.132812 56.238281 -23.664062 56.375 -26.8125 C 50.207031 -29.78125 45.097656 -31.273438 41.046875 -31.296875 C 36.429688 -31.328125 32.316406 -30.507812 28.703125 -28.84375 C 25.097656 -27.175781 23.28125 -24.203125 23.25 -19.921875 C 23.238281 -17.785156 24.125 -15.976562 25.90625 -14.5 C 27.695312 -13.03125 29.550781 -12.289062 31.46875 -12.28125 Z M 31.46875 -12.28125 "/></g></g></g><g fill="#df5d04" fill-opacity="1"><g transform="translate(854.792363, 1350.898)"><g><path d="M 108.015625 -41.171875 C 105.441406 -43.648438 103.335938 -46.664062 101.703125 -50.21875 C 100.078125 -53.78125 98.207031 -58.828125 96.09375 -65.359375 C 94.082031 -71.554688 91.476562 -76.679688 88.28125 -80.734375 C 85.082031 -84.785156 80.804688 -85.941406 75.453125 -84.203125 C 73.421875 -83.546875 71.609375 -82.28125 70.015625 -80.40625 C 68.429688 -78.539062 67.457031 -76.539062 67.09375 -74.40625 C 66.519531 -71.019531 66.507812 -67.554688 67.0625 -64.015625 C 67.625 -60.472656 68.617188 -56.507812 70.046875 -52.125 C 70.941406 -49.332031 72.019531 -46.550781 73.28125 -43.78125 C 73.5625 -42.914062 74.082031 -41.570312 74.84375 -39.75 C 75.613281 -37.925781 76.242188 -36.269531 76.734375 -34.78125 C 78.804688 -28.351562 77.597656 -24.410156 73.109375 -22.953125 C 67.210938 -21.046875 63.097656 -23.144531 60.765625 -29.25 C 59.347656 -33.632812 58.644531 -36.007812 58.65625 -36.375 L 56.421875 -43.28125 C 55.171875 -47.132812 53.796875 -50.828125 52.296875 -54.359375 C 50.796875 -57.890625 49.535156 -60.492188 48.515625 -62.171875 C 46.421875 -65.398438 44.285156 -67.722656 42.109375 -69.140625 C 39.929688 -70.566406 37.179688 -70.742188 33.859375 -69.671875 C 29.140625 -68.140625 25.992188 -64.878906 24.421875 -59.890625 C 23.429688 -56.023438 23.359375 -51.679688 24.203125 -46.859375 C 25.472656 -40.765625 26.519531 -35.988281 27.34375 -32.53125 C 28.164062 -29.070312 29.285156 -25.148438 30.703125 -20.765625 C 31.703125 -17.660156 32.003906 -14.976562 31.609375 -12.71875 C 31.222656 -10.46875 29.640625 -8.890625 26.859375 -7.984375 C 24.828125 -7.328125 22.53125 -7.207031 19.96875 -7.625 C 17.40625 -8.039062 15.816406 -9.210938 15.203125 -11.140625 C 14.535156 -13.171875 14.085938 -15.269531 13.859375 -17.4375 C 12.859375 -23.851562 9.804688 -34.929688 4.703125 -50.671875 C 3.878906 -53.234375 2.460938 -55.515625 0.453125 -57.515625 C -1.554688 -59.523438 -3.421875 -60.253906 -5.140625 -59.703125 C -5.566406 -59.566406 -6.273438 -59.101562 -7.265625 -58.3125 C -8.253906 -57.53125 -9.015625 -57.050781 -9.546875 -56.875 C -10.929688 -56.425781 -12.390625 -56.660156 -13.921875 -57.578125 C -15.460938 -58.492188 -16.375 -59.378906 -16.65625 -60.234375 C -17.519531 -62.910156 -16.941406 -65.609375 -14.921875 -68.328125 C -12.910156 -71.046875 -10.457031 -72.875 -7.5625 -73.8125 C -3.613281 -75.09375 0.144531 -74.953125 3.71875 -73.390625 C 7.300781 -71.835938 10.554688 -69.113281 13.484375 -65.21875 C 14.566406 -70.289062 16.769531 -74.8125 20.09375 -78.78125 C 23.414062 -82.757812 27.644531 -85.582031 32.78125 -87.25 C 36 -88.28125 38.722656 -88.710938 40.953125 -88.546875 C 43.191406 -88.390625 45.1875 -87.796875 46.9375 -86.765625 C 48.695312 -85.734375 51.0625 -84.101562 54.03125 -81.875 C 55.59375 -86.175781 58.175781 -89.972656 61.78125 -93.265625 C 65.382812 -96.554688 69.4375 -98.929688 73.9375 -100.390625 C 79.289062 -102.117188 84.8125 -101.507812 90.5 -98.5625 C 96.1875 -95.613281 100.691406 -91.546875 104.015625 -86.359375 C 105.710938 -83.703125 107.894531 -78.257812 110.5625 -70.03125 L 114.21875 -60.921875 C 116.550781 -55.515625 119.457031 -52.734375 122.9375 -52.578125 C 126.925781 -52.679688 129.109375 -52.144531 129.484375 -50.96875 C 130.316406 -48.40625 130.285156 -46.328125 129.390625 -44.734375 C 128.628906 -43.773438 127.515625 -42.644531 126.046875 -41.34375 C 124.578125 -40.039062 123.359375 -39.234375 122.390625 -38.921875 C 116.609375 -37.046875 111.816406 -37.796875 108.015625 -41.171875 Z M 108.015625 -41.171875 "/></g></g></g><g fill="#005c36" fill-opacity="1"><g transform="translate(1161.202333, 1126.071426)"><g><path d="M 17.96875 -89.8125 C 24.34375 -94.363281 30.273438 -96.445312 35.765625 -96.0625 C 41.253906 -95.675781 45.976562 -93.328125 49.9375 -89.015625 C 53.90625 -84.691406 56.0625 -79.144531 56.40625 -72.375 C 56.757812 -65.613281 55.4375 -58.910156 52.4375 -52.265625 C 51.03125 -49.378906 48.722656 -46.097656 45.515625 -42.421875 C 42.304688 -38.753906 38.820312 -35.195312 35.0625 -31.75 C 28.78125 -25.988281 21.800781 -20.671875 14.125 -15.796875 C 12.726562 -14.953125 10.953125 -14.40625 8.796875 -14.15625 C 6.640625 -13.90625 4.734375 -14.679688 3.078125 -16.484375 C -3.628906 -23.640625 -13.125 -33.429688 -25.40625 -45.859375 L -31.46875 -52.21875 C -41 -61.976562 -48.394531 -69.722656 -53.65625 -75.453125 C -54.59375 -76.472656 -55.082031 -78.222656 -55.125 -80.703125 C -55.164062 -83.191406 -54.398438 -85.3125 -52.828125 -87.0625 C -51.804688 -88 -50.859375 -88.9375 -49.984375 -89.875 C -41.910156 -98.882812 -36.382812 -104.757812 -33.40625 -107.5 C -27.519531 -112.894531 -21.796875 -117.09375 -16.234375 -120.09375 C -10.679688 -123.101562 -5.046875 -124.484375 0.671875 -124.234375 C 2.921875 -123.992188 5.28125 -123.234375 7.75 -121.953125 C 10.21875 -120.679688 12.28125 -119.140625 13.9375 -117.328125 C 17.550781 -113.554688 19.796875 -109.109375 20.671875 -103.984375 C 21.546875 -98.867188 20.644531 -94.144531 17.96875 -89.8125 Z M -23.515625 -98.125 C -26.179688 -95.675781 -28.800781 -92.976562 -31.375 -90.03125 C -33.945312 -87.09375 -36 -84.488281 -37.53125 -82.21875 L -16.421875 -60.640625 L -12.265625 -64.640625 C -6.109375 -71.609375 -1.628906 -76.804688 1.171875 -80.234375 C 2.773438 -82.566406 3.925781 -85.320312 4.625 -88.5 C 5.332031 -91.675781 5.628906 -94.625 5.515625 -97.34375 C 5.398438 -100.0625 4.984375 -101.8125 4.265625 -102.59375 C 3.179688 -103.769531 1.84375 -104.75 0.25 -105.53125 C -1.332031 -106.320312 -2.648438 -106.738281 -3.703125 -106.78125 C -7.691406 -106.875 -11.109375 -106.265625 -13.953125 -104.953125 C -16.796875 -103.640625 -19.984375 -101.363281 -23.515625 -98.125 Z M 12.375 -29.984375 C 16.875 -33.117188 20.925781 -36.34375 24.53125 -39.65625 C 32.457031 -46.9375 37.757812 -53.71875 40.4375 -60 C 43.113281 -66.289062 41.75 -72.378906 36.34375 -78.265625 C 34.1875 -80.617188 30.625 -80.957031 25.65625 -79.28125 C 20.695312 -77.613281 16.175781 -74.90625 12.09375 -71.15625 C 9.34375 -68.632812 6.132812 -65.117188 2.46875 -60.609375 C -0.46875 -57.046875 -3.472656 -53.707031 -6.546875 -50.59375 C -2.066406 -46.03125 0.742188 -43.125 1.890625 -41.875 C 4.128906 -39.4375 5.789062 -37.554688 6.875 -36.234375 Z M 12.375 -29.984375 "/></g></g></g><g fill="#005c36" fill-opacity="1"><g transform="translate(1276.158437, 1006.281531)"><g><path d="M -70.421875 -75.796875 C -71.023438 -74.785156 -71.894531 -74.160156 -73.03125 -73.921875 C -74.175781 -73.679688 -75.25 -73.859375 -76.25 -74.453125 C -78.71875 -75.929688 -79.546875 -78.632812 -78.734375 -82.5625 C -77.929688 -86.488281 -76.679688 -89.867188 -74.984375 -92.703125 C -73.398438 -95.347656 -70.164062 -97.628906 -65.28125 -99.546875 C -64.445312 -99.910156 -63.175781 -100.015625 -61.46875 -99.859375 C -59.757812 -99.703125 -58.175781 -99.1875 -56.71875 -98.3125 C -53.332031 -96.28125 -51.296875 -94.03125 -50.609375 -91.5625 C -49.921875 -89.09375 -49.875 -85.804688 -50.46875 -81.703125 C -50.65625 -80.566406 -50.378906 -79.78125 -49.640625 -79.34375 C -49.097656 -79.007812 -48.234375 -78.894531 -47.046875 -79 C -45.867188 -79.101562 -45.144531 -79.070312 -44.875 -78.90625 C -44.144531 -78.46875 -43.609375 -77.804688 -43.265625 -76.921875 C -42.929688 -76.035156 -43.066406 -75.085938 -43.671875 -74.078125 C -46.023438 -70.148438 -48.703125 -68.59375 -51.703125 -69.40625 C -52.035156 -69.46875 -52.675781 -69.632812 -53.625 -69.90625 C -54.582031 -70.175781 -55.34375 -70.476562 -55.90625 -70.8125 C -57.632812 -71.851562 -58.648438 -73.457031 -58.953125 -75.625 C -59.097656 -76.207031 -59.101562 -76.921875 -58.96875 -77.765625 C -58.832031 -78.617188 -58.773438 -79.238281 -58.796875 -79.625 C -58.546875 -81.707031 -58.507812 -83.421875 -58.6875 -84.765625 C -58.875 -86.117188 -59.648438 -87.207031 -61.015625 -88.03125 C -62.929688 -89.1875 -64.40625 -89.414062 -65.4375 -88.71875 C -66.476562 -88.03125 -67.546875 -86.78125 -68.640625 -84.96875 C -69.296875 -83.863281 -69.710938 -82.125 -69.890625 -79.75 C -70.078125 -77.375 -70.253906 -76.054688 -70.421875 -75.796875 Z M 35.171875 -73.546875 C 37.179688 -72.335938 38.226562 -70.25 38.3125 -67.28125 C 38.394531 -64.3125 37.890625 -61.910156 36.796875 -60.078125 C 34.710938 -56.617188 32.625 -54.117188 30.53125 -52.578125 C 28.4375 -51.046875 25.675781 -50.125 22.25 -49.8125 C 22.914062 -46.175781 22.539062 -41.988281 21.125 -37.25 C 19.71875 -32.507812 17.972656 -28.40625 15.890625 -24.9375 C 12.492188 -19.28125 8.164062 -15.539062 2.90625 -13.71875 C -2.34375 -11.894531 -7.9375 -12.765625 -13.875 -16.328125 C -16.425781 -17.859375 -18.363281 -19.953125 -19.6875 -22.609375 C -21.007812 -25.265625 -21.78125 -28.28125 -22 -31.65625 C -22.15625 -35.332031 -21.695312 -39.148438 -20.625 -43.109375 C -19.5625 -47.066406 -17.929688 -50.867188 -15.734375 -54.515625 C -14.585938 -56.441406 -12.847656 -58.507812 -10.515625 -60.71875 C -8.191406 -62.925781 -6.1875 -64.515625 -4.5 -65.484375 L -6.671875 -66.796875 C -11.609375 -69.765625 -15.726562 -70.617188 -19.03125 -69.359375 C -22.332031 -68.109375 -25.570312 -64.832031 -28.75 -59.53125 C -29.675781 -57.976562 -30.269531 -56.257812 -30.53125 -54.375 C -30.800781 -52.488281 -30.960938 -50.253906 -31.015625 -47.671875 C -31.179688 -44.296875 -31.945312 -41.46875 -33.3125 -39.1875 C -33.8125 -38.363281 -34.847656 -37.925781 -36.421875 -37.875 C -37.992188 -37.832031 -39.238281 -38.085938 -40.15625 -38.640625 C -42.800781 -40.222656 -44.328125 -42.84375 -44.734375 -46.5 C -45.148438 -50.164062 -44.800781 -54.019531 -43.6875 -58.0625 C -42.570312 -62.113281 -41.191406 -65.515625 -39.546875 -68.265625 C -37.898438 -71.003906 -35.484375 -73.835938 -32.296875 -76.765625 C -29.109375 -79.691406 -25.914062 -81.753906 -22.71875 -82.953125 C -18.695312 -84.253906 -14.660156 -84.710938 -10.609375 -84.328125 C -6.554688 -83.953125 -2.65625 -82.640625 1.09375 -80.390625 C 2.28125 -79.679688 4.007812 -78.519531 6.28125 -76.90625 C 8.71875 -75.195312 10.851562 -73.789062 12.6875 -72.6875 C 13.507812 -72.195312 14.691406 -71.367188 16.234375 -70.203125 C 18.117188 -68.804688 19.65625 -67.753906 20.84375 -67.046875 C 21.9375 -66.390625 23.117188 -66.238281 24.390625 -66.59375 C 25.660156 -66.957031 26.625 -67.6875 27.28125 -68.78125 L 29.453125 -72.6875 C 30.066406 -73.695312 30.898438 -74.253906 31.953125 -74.359375 C 33.003906 -74.472656 34.078125 -74.203125 35.171875 -73.546875 Z M 5.15625 -31.5625 C 7.507812 -35.488281 9.066406 -39.023438 9.828125 -42.171875 C 10.597656 -45.316406 11.015625 -49.414062 11.078125 -54.46875 C 9.742188 -55.769531 7.828125 -57.234375 5.328125 -58.859375 C -0.0664062 -55.265625 -3.753906 -51.816406 -5.734375 -48.515625 C -7.984375 -44.773438 -9.296875 -41.03125 -9.671875 -37.28125 C -10.046875 -33.539062 -8.503906 -30.628906 -5.046875 -28.546875 C -3.304688 -27.503906 -1.40625 -27.359375 0.65625 -28.109375 C 2.71875 -28.859375 4.21875 -30.007812 5.15625 -31.5625 Z M 5.15625 -31.5625 "/></g></g></g><g fill="#005c36" fill-opacity="1"><g transform="translate(1343.478599, 877.927928)"><g><path d="M -29.90625 -82.953125 C -28.226562 -83.378906 -25.960938 -83.460938 -23.109375 -83.203125 C -20.253906 -82.941406 -17.75 -82.507812 -15.59375 -81.90625 C -11.601562 -80.78125 -6.15625 -78.300781 0.75 -74.46875 C 11.664062 -63.769531 15.171875 -51.5 11.265625 -37.65625 C 9.828125 -32.53125 6.664062 -27.78125 1.78125 -23.40625 C -3.101562 -19.03125 -8.039062 -16.429688 -13.03125 -15.609375 C -22.625 -15.335938 -28.597656 -15.535156 -30.953125 -16.203125 C -35.054688 -17.347656 -39.160156 -19.46875 -43.265625 -22.5625 C -47.367188 -25.65625 -50.722656 -29.066406 -53.328125 -32.796875 C -55.203125 -35.191406 -56.347656 -38.882812 -56.765625 -43.875 C -57.179688 -48.875 -56.867188 -53.21875 -55.828125 -56.90625 C -53.804688 -64.082031 -50.726562 -69.796875 -46.59375 -74.046875 C -42.46875 -78.304688 -36.90625 -81.273438 -29.90625 -82.953125 Z M -8.921875 -62.59375 C -10.109375 -63.488281 -13.46875 -64.71875 -19 -66.28125 C -21.976562 -67.113281 -25.050781 -67.394531 -28.21875 -67.125 C -31.382812 -66.851562 -34.289062 -65.984375 -36.9375 -64.515625 C -37.1875 -64.367188 -37.671875 -63.898438 -38.390625 -63.109375 C -39.109375 -62.316406 -39.921875 -61.191406 -40.828125 -59.734375 C -41.742188 -58.273438 -42.492188 -56.515625 -43.078125 -54.453125 C -44.691406 -48.722656 -43.566406 -43.875 -39.703125 -39.90625 C -35.847656 -35.945312 -30.992188 -33.144531 -25.140625 -31.5 C -24.117188 -31.207031 -22.09375 -30.9375 -19.0625 -30.6875 C -16.039062 -30.4375 -14.113281 -30.414062 -13.28125 -30.625 C -12.46875 -30.738281 -11.242188 -31.253906 -9.609375 -32.171875 C -7.972656 -33.097656 -6.394531 -34.367188 -4.875 -35.984375 C -3.363281 -37.609375 -2.320312 -39.445312 -1.75 -41.5 C -0.445312 -46.113281 -0.503906 -50.113281 -1.921875 -53.5 C -3.347656 -56.882812 -5.679688 -59.914062 -8.921875 -62.59375 Z M -8.921875 -62.59375 "/></g></g></g><g fill="#005c36" fill-opacity="1"><g transform="translate(1375.459795, 736.715765)"><g><path d="M -89.65625 -88.5 C -87.75 -90.113281 -86.210938 -91.242188 -85.046875 -91.890625 C -83.890625 -92.546875 -82.78125 -92.878906 -81.71875 -92.890625 C -80.4375 -92.910156 -78.929688 -92.101562 -77.203125 -90.46875 C -75.484375 -88.832031 -74.617188 -87.21875 -74.609375 -85.625 C -74.578125 -83.488281 -74.875 -81.78125 -75.5 -80.5 C -76.125 -79.21875 -77.125 -78.144531 -78.5 -77.28125 C -81.039062 -75.539062 -83.226562 -73.4375 -85.0625 -70.96875 C -86.90625 -68.5 -87.796875 -64.65625 -87.734375 -59.4375 C -87.691406 -54.96875 -86.625 -49.894531 -84.53125 -44.21875 C -82.445312 -38.539062 -79.898438 -34.488281 -76.890625 -32.0625 C -74.203125 -29.96875 -70.132812 -28.175781 -64.6875 -26.6875 C -59.238281 -25.207031 -53.957031 -24.492188 -48.84375 -24.546875 C -42.664062 -24.609375 -37.007812 -26.023438 -31.875 -28.796875 C -26.738281 -31.578125 -22.648438 -35.566406 -19.609375 -40.765625 C -16.578125 -45.972656 -15.101562 -52.195312 -15.1875 -59.4375 C -15.226562 -63.375 -16.046875 -67.4375 -17.640625 -71.625 C -19.234375 -75.820312 -21.800781 -79.445312 -25.34375 -82.5 L -25.34375 -82.328125 C -27.394531 -84.222656 -28.4375 -86.609375 -28.46875 -89.484375 C -28.488281 -91.191406 -27.757812 -92.828125 -26.28125 -94.390625 C -24.800781 -95.953125 -23.316406 -96.738281 -21.828125 -96.75 C -20.234375 -96.769531 -18.820312 -96.546875 -17.59375 -96.078125 C -16.363281 -95.617188 -15 -94.753906 -13.5 -93.484375 C -8.539062 -89.171875 -5.125 -84.039062 -3.25 -78.09375 C -1.382812 -72.144531 -0.40625 -65.019531 -0.3125 -56.71875 C -0.226562 -49.363281 -1.898438 -41.914062 -5.328125 -34.375 C -8.753906 -26.832031 -12.953125 -21.007812 -17.921875 -16.90625 C -20.992188 -14.738281 -25.421875 -12.632812 -31.203125 -10.59375 C -36.984375 -8.5625 -41.6875 -7.523438 -45.3125 -7.484375 C -54.570312 -7.390625 -63.398438 -8.707031 -71.796875 -11.4375 C -80.191406 -14.164062 -86.914062 -18.328125 -91.96875 -23.921875 C -95.414062 -27.609375 -98.03125 -32.957031 -99.8125 -39.96875 C -101.601562 -46.988281 -102.53125 -53.425781 -102.59375 -59.28125 C -102.675781 -66.414062 -101.75 -72.039062 -99.8125 -76.15625 C -97.882812 -80.28125 -94.5 -84.394531 -89.65625 -88.5 Z M -89.65625 -88.5 "/></g></g></g><g fill="#005c36" fill-opacity="1"><g transform="translate(1363.277451, 571.465409)"><g><path d="M -104.984375 3.46875 C -102.335938 2.65625 -99.238281 1.75 -95.6875 0.75 C -92.144531 -0.238281 -89.445312 -0.957031 -87.59375 -1.40625 C -82.3125 -2.726562 -77.070312 -4.191406 -71.875 -5.796875 C -68.019531 -6.992188 -64.054688 -8.382812 -59.984375 -9.96875 C -65.535156 -11.707031 -69.945312 -14.078125 -73.21875 -17.078125 C -76.488281 -20.085938 -78.929688 -24.1875 -80.546875 -29.375 C -81.710938 -33.132812 -81.117188 -37.160156 -78.765625 -41.453125 C -76.421875 -45.753906 -73.148438 -49.054688 -68.953125 -51.359375 C -65.097656 -52.898438 -60.320312 -54.554688 -54.625 -56.328125 C -50.96875 -57.460938 -46.242188 -59.144531 -40.453125 -61.375 C -38.285156 -62.28125 -36.382812 -63.515625 -34.75 -65.078125 C -33.113281 -66.640625 -32.582031 -68.335938 -33.15625 -70.171875 C -33.4375 -71.085938 -33.710938 -71.8125 -33.984375 -72.34375 C -34.265625 -72.875 -34.488281 -73.390625 -34.65625 -73.890625 C -35.09375 -75.316406 -35.039062 -76.414062 -34.5 -77.1875 C -33.957031 -77.96875 -33.023438 -78.566406 -31.703125 -78.984375 C -29.253906 -79.742188 -27.039062 -79.09375 -25.0625 -77.03125 C -23.09375 -74.96875 -21.789062 -72.914062 -21.15625 -70.875 C -18.882812 -63.550781 -20.375 -57.570312 -25.625 -52.9375 C -28.613281 -50.34375 -32.816406 -47.976562 -38.234375 -45.84375 C -43.660156 -43.71875 -50.082031 -41.503906 -57.5 -39.203125 C -64.820312 -36.929688 -67.707031 -33.304688 -66.15625 -28.328125 C -65.300781 -25.578125 -62.988281 -23.25 -59.21875 -21.34375 C -55.457031 -19.445312 -50.925781 -18.316406 -45.625 -17.953125 C -40.320312 -17.585938 -35.128906 -18.195312 -30.046875 -19.78125 L -14.234375 -24.859375 C -11.992188 -25.546875 -10.070312 -25.191406 -8.46875 -23.796875 C -6.863281 -22.398438 -5.828125 -20.9375 -5.359375 -19.40625 C -4.660156 -17.164062 -4.710938 -14.914062 -5.515625 -12.65625 C -6.316406 -10.40625 -7.585938 -9.015625 -9.328125 -8.484375 C -17.171875 -6.828125 -30.039062 -3.222656 -47.9375 2.328125 C -51.207031 3.335938 -63.1875 7.332031 -83.875 14.3125 L -97.78125 19.140625 C -100.007812 19.828125 -102.28125 19.414062 -104.59375 17.90625 C -106.90625 16.394531 -108.457031 14.367188 -109.25 11.828125 C -109.945312 9.585938 -109.941406 7.800781 -109.234375 6.46875 C -108.523438 5.132812 -107.109375 4.132812 -104.984375 3.46875 Z M -104.984375 3.46875 "/></g></g></g><g fill="#005c36" fill-opacity="1"><g transform="translate(1311.342726, 432.998875)"><g><path d="M -107.9375 21.46875 C -109.25 19.40625 -109.960938 17.585938 -110.078125 16.015625 C -110.203125 14.441406 -109.832031 12.75 -108.96875 10.9375 C -108.207031 9.175781 -107.550781 6.851562 -107 3.96875 C -106.445312 1.082031 -106.125 -1.460938 -106.03125 -3.671875 C -105.863281 -6.566406 -105.0625 -8.472656 -103.625 -9.390625 C -102.820312 -9.910156 -101.757812 -10.023438 -100.4375 -9.734375 C -99.113281 -9.453125 -98.101562 -8.769531 -97.40625 -7.6875 C -95.457031 -4.644531 -94.71875 -1.226562 -95.1875 2.5625 C -95.664062 6.351562 -96.828125 10.550781 -98.671875 15.15625 C -94.785156 15.3125 -90.65625 16.132812 -86.28125 17.625 C -81.90625 19.125 -78.910156 21.125 -77.296875 23.625 C -76.367188 25.0625 -76.082031 26.332031 -76.4375 27.4375 C -76.800781 28.550781 -77.429688 29.398438 -78.328125 29.984375 C -79.046875 30.441406 -80.457031 30.554688 -82.5625 30.328125 C -84.664062 30.097656 -86.691406 29.660156 -88.640625 29.015625 C -92.316406 27.835938 -95.96875 27.082031 -99.59375 26.75 C -101.101562 26.570312 -102.539062 26.160156 -103.90625 25.515625 C -105.269531 24.867188 -106.613281 23.519531 -107.9375 21.46875 Z M -50.3125 -64.140625 C -48.34375 -65.398438 -46.007812 -65.410156 -43.3125 -64.171875 C -40.613281 -62.929688 -38.6875 -61.414062 -37.53125 -59.625 C -35.351562 -56.21875 -34.039062 -53.234375 -33.59375 -50.671875 C -33.144531 -48.109375 -33.539062 -45.226562 -34.78125 -42.03125 C -31.21875 -41.03125 -27.625 -38.84375 -24 -35.46875 C -20.382812 -32.09375 -17.484375 -28.707031 -15.296875 -25.3125 C -11.734375 -19.757812 -10.300781 -14.222656 -11 -8.703125 C -11.695312 -3.179688 -14.960938 1.445312 -20.796875 5.1875 C -23.304688 6.789062 -26.039062 7.597656 -29 7.609375 C -31.96875 7.617188 -35.007812 6.976562 -38.125 5.6875 C -41.488281 4.1875 -44.707031 2.082031 -47.78125 -0.625 C -50.851562 -3.34375 -53.539062 -6.492188 -55.84375 -10.078125 C -57.050781 -11.960938 -58.128906 -14.4375 -59.078125 -17.5 C -60.023438 -20.5625 -60.5625 -23.070312 -60.6875 -25.03125 L -62.828125 -23.640625 C -67.671875 -20.535156 -70.265625 -17.222656 -70.609375 -13.703125 C -70.953125 -10.191406 -69.453125 -5.835938 -66.109375 -0.640625 C -65.128906 0.878906 -63.851562 2.175781 -62.28125 3.25 C -60.707031 4.332031 -58.773438 5.46875 -56.484375 6.65625 C -53.523438 8.300781 -51.328125 10.242188 -49.890625 12.484375 C -49.367188 13.285156 -49.4375 14.40625 -50.09375 15.84375 C -50.757812 17.28125 -51.546875 18.289062 -52.453125 18.875 C -55.046875 20.539062 -58.070312 20.742188 -61.53125 19.484375 C -65 18.234375 -68.296875 16.207031 -71.421875 13.40625 C -74.554688 10.601562 -76.988281 7.859375 -78.71875 5.171875 C -80.445312 2.472656 -81.914062 -0.945312 -83.125 -5.09375 C -84.332031 -9.25 -84.765625 -13.023438 -84.421875 -16.421875 C -83.804688 -20.597656 -82.425781 -24.421875 -80.28125 -27.890625 C -78.144531 -31.367188 -75.242188 -34.285156 -71.578125 -36.640625 C -70.410156 -37.390625 -68.597656 -38.421875 -66.140625 -39.734375 C -63.515625 -41.160156 -61.304688 -42.453125 -59.515625 -43.609375 C -58.703125 -44.128906 -57.441406 -44.816406 -55.734375 -45.671875 C -53.628906 -46.765625 -51.992188 -47.6875 -50.828125 -48.4375 C -49.765625 -49.125 -49.109375 -50.113281 -48.859375 -51.40625 C -48.617188 -52.695312 -48.84375 -53.882812 -49.53125 -54.96875 L -52.09375 -58.640625 C -52.726562 -59.628906 -52.859375 -60.617188 -52.484375 -61.609375 C -52.117188 -62.597656 -51.394531 -63.441406 -50.3125 -64.140625 Z M -26.015625 -18.609375 C -28.492188 -22.472656 -30.96875 -25.445312 -33.4375 -27.53125 C -35.914062 -29.613281 -39.40625 -31.796875 -43.90625 -34.078125 C -45.664062 -33.460938 -47.828125 -32.394531 -50.390625 -30.875 C -49.554688 -24.445312 -48.101562 -19.617188 -46.03125 -16.390625 C -43.664062 -12.710938 -40.890625 -9.875 -37.703125 -7.875 C -34.515625 -5.875 -31.222656 -5.960938 -27.828125 -8.140625 C -26.128906 -9.234375 -25.15625 -10.867188 -24.90625 -13.046875 C -24.664062 -15.234375 -25.035156 -17.085938 -26.015625 -18.609375 Z M -26.015625 -18.609375 "/></g></g></g><g fill="#005c36" fill-opacity="1"><g transform="translate(1226.07992, 315.276653)"><g><path d="M -39.875 36.609375 C -39.238281 37.171875 -38.890625 37.941406 -38.828125 38.921875 C -38.765625 39.898438 -39.050781 40.75 -39.6875 41.46875 C -41.320312 43.289062 -43.640625 44.285156 -46.640625 44.453125 C -47.335938 44.273438 -48.648438 43.820312 -50.578125 43.09375 C -52.503906 42.375 -54.023438 41.519531 -55.140625 40.53125 C -58.160156 37.832031 -59.894531 34.816406 -60.34375 31.484375 C -60.800781 28.160156 -59.6875 24.992188 -57 21.984375 C -56.21875 21.097656 -54.390625 19.367188 -51.515625 16.796875 C -48.234375 13.722656 -45.78125 11.273438 -44.15625 9.453125 C -39.207031 3.890625 -35.957031 -1.273438 -34.40625 -6.046875 C -33.96875 -7.648438 -34.0625 -9.300781 -34.6875 -11 C -35.320312 -12.695312 -36.117188 -13.972656 -37.078125 -14.828125 C -39.378906 -16.878906 -41.597656 -18.144531 -43.734375 -18.625 C -45.878906 -19.101562 -48.566406 -19.210938 -51.796875 -18.953125 C -55.023438 -18.691406 -57.890625 -17.675781 -60.390625 -15.90625 C -62.890625 -14.144531 -65.992188 -11.421875 -69.703125 -7.734375 C -72.117188 -5.328125 -73.941406 -3.59375 -75.171875 -2.53125 C -78.972656 0.914062 -82.078125 3.992188 -84.484375 6.703125 C -86.046875 8.453125 -87.816406 9.476562 -89.796875 9.78125 C -91.773438 10.082031 -93.597656 9.488281 -95.265625 8 C -96.210938 7.15625 -97.035156 5.882812 -97.734375 4.1875 C -98.441406 2.488281 -98.644531 1.066406 -98.34375 -0.078125 C -98.113281 -1.296875 -97.1875 -2.816406 -95.5625 -4.640625 C -94.707031 -5.597656 -93.765625 -6.410156 -92.734375 -7.078125 C -90.410156 -8.566406 -88.007812 -10.707031 -85.53125 -13.5 L -80.140625 -19.8125 C -75.109375 -25.457031 -71.785156 -29.976562 -70.171875 -33.375 C -69.429688 -35.007812 -68.835938 -36.800781 -68.390625 -38.75 C -67.941406 -40.695312 -67.644531 -42.394531 -67.5 -43.84375 C -67.53125 -47.019531 -67.476562 -49.15625 -67.34375 -50.25 C -67.21875 -51.351562 -66.878906 -52.21875 -66.328125 -52.84375 C -65.472656 -53.800781 -64.21875 -54.289062 -62.5625 -54.3125 C -60.90625 -54.332031 -59.554688 -53.882812 -58.515625 -52.96875 C -55.578125 -50.351562 -53.921875 -47.09375 -53.546875 -43.1875 C -53.171875 -39.289062 -53.878906 -35.289062 -55.671875 -31.1875 C -50.203125 -31.875 -45.460938 -32.144531 -41.453125 -32 C -38.867188 -31.6875 -36.191406 -30.765625 -33.421875 -29.234375 C -30.660156 -27.703125 -28.128906 -25.910156 -25.828125 -23.859375 C -22.722656 -21.097656 -20.710938 -17.023438 -19.796875 -11.640625 C -18.878906 -6.253906 -19.359375 -1.398438 -21.234375 2.921875 C -21.273438 3.148438 -21.613281 3.984375 -22.25 5.421875 C -22.894531 6.859375 -24.207031 8.691406 -26.1875 10.921875 C -28.800781 13.859375 -32.25 17.410156 -36.53125 21.578125 C -39.332031 24.234375 -41.796875 26.753906 -43.921875 29.140625 C -44.554688 29.859375 -44.828125 30.6875 -44.734375 31.625 C -44.640625 32.5625 -44.273438 33.316406 -43.640625 33.890625 C -43.160156 34.304688 -42.566406 34.722656 -41.859375 35.140625 C -41.160156 35.554688 -40.5 36.046875 -39.875 36.609375 Z M -39.875 36.609375 "/></g></g></g><path fill="#ff862e" d="M 1097.820312 592.085938 C 1075.105469 557.902344 1046.488281 527.183594 1013.28125 501.519531 C 905.136719 417.945312 766.707031 399.402344 636.851562 436.421875 C 473.6875 482.917969 344.960938 620.457031 362.246094 797.714844 C 378.042969 959.699219 504.203125 1087.703125 663.683594 1111.140625 C 769.769531 1126.730469 879.53125 1118.140625 975.453125 1066.71875 C 1057.867188 1022.542969 1127.316406 943.113281 1148.34375 850.675781 C 1169.191406 759.050781 1147.742188 667.207031 1097.8125 592.085938 Z M 1097.820312 592.085938 " fill-opacity="1" fill-rule="nonzero"/><path fill="#005c36" d="M 838.972656 255.339844 C 831.386719 249.859375 822.359375 251.363281 816.207031 258.023438 C 804.761719 270.414062 795.34375 285.175781 786.519531 299.507812 C 776.957031 315.046875 768.367188 331.125 760.886719 347.769531 C 757.242188 355.878906 753.847656 364.117188 750.699219 372.453125 C 749.714844 369.96875 748.699219 367.492188 747.617188 365.023438 C 726.988281 317.992188 689.3125 276.183594 645.507812 252.609375 C 620.082031 238.921875 591.953125 230.363281 563.25 227.28125 C 538.921875 224.679688 499.035156 219.316406 489.863281 249.257812 C 486.527344 260.136719 489.160156 272.167969 492.914062 282.589844 C 497.945312 296.550781 504.710938 309.996094 512.140625 322.808594 C 536.007812 363.933594 559.535156 404.363281 600.269531 431.652344 C 625.6875 448.6875 654.867188 459.96875 685.042969 464.882812 C 696.78125 466.792969 712.097656 469.550781 726.34375 468.730469 C 724.6875 481.171875 723.574219 493.683594 723.027344 506.21875 C 722.640625 515.210938 727.816406 524.753906 737.710938 525.691406 C 746.28125 526.5 756.773438 520.660156 757.183594 511.007812 C 757.902344 494.265625 759.589844 477.585938 762.3125 461.058594 C 763.648438 452.9375 765.226562 444.855469 767.039062 436.820312 C 767.917969 432.941406 768.84375 429.082031 769.835938 425.230469 C 770.355469 423.203125 770.902344 421.183594 771.445312 419.164062 C 771.066406 420.628906 772.480469 415.539062 772.664062 414.902344 C 782.09375 382.972656 795.390625 352.457031 811.8125 323.519531 C 813.070312 321.296875 814.335938 319.085938 815.632812 316.890625 C 815.632812 316.878906 815.984375 316.304688 816.238281 315.875 C 816.667969 315.183594 817.796875 313.320312 817.757812 313.390625 C 820.148438 309.519531 822.59375 305.6875 825.101562 301.90625 C 830.441406 293.851562 836.339844 286.179688 841.65625 278.117188 C 846.316406 271.046875 846.480469 260.769531 838.972656 255.351562 Z M 838.972656 255.339844 " fill-opacity="1" fill-rule="nonzero"/><path fill="#f77014" d="M 780.621094 494.355469 C 777.023438 494.863281 773.53125 496.636719 770.0625 497.746094 C 766.523438 498.878906 762.914062 499.792969 759.257812 500.507812 C 758.703125 500.613281 756.363281 500.984375 756.148438 501.042969 C 755.066406 501.160156 753.976562 501.265625 752.894531 501.34375 C 749.1875 501.617188 745.453125 501.734375 741.738281 501.6875 C 740.148438 501.667969 738.550781 501.609375 736.960938 501.511719 C 736.609375 501.492188 734.339844 501.296875 733.1875 501.199219 C 732.429688 501.050781 729.386719 500.605469 728.957031 500.515625 C 727.386719 500.214844 725.835938 499.863281 724.285156 499.484375 C 720.679688 498.59375 717.148438 497.433594 713.628906 496.265625 C 712.128906 495.769531 710.648438 495.230469 709.15625 494.695312 C 708.765625 494.539062 708.460938 494.421875 708.230469 494.324219 C 707.398438 493.953125 706.582031 493.574219 705.773438 493.183594 C 698.1875 489.578125 688.054688 490.835938 683.757812 498.957031 C 679.515625 506.988281 681.992188 516.046875 689.527344 520.972656 C 705.148438 531.167969 723.203125 536.0625 741.75 536.960938 C 750.707031 537.398438 759.863281 536.269531 768.617188 534.40625 C 778.476562 532.320312 789.277344 529.054688 796.882812 522.269531 C 802.167969 517.550781 803.320312 507.976562 799.496094 502.039062 C 795.109375 495.242188 788.34375 493.273438 780.640625 494.363281 Z M 780.621094 494.355469 " fill-opacity="1" fill-rule="nonzero"/><path fill="#f77014" d="M 584.074219 817.253906 C 565.324219 806.296875 539.371094 809.804688 527.828125 829.226562 C 523.078125 837.210938 524.972656 848.609375 532.117188 854.546875 C 540.445312 866.226562 558.636719 871.035156 573.136719 867.777344 C 583.65625 865.410156 593.765625 858.351562 597.03125 847.675781 C 600.707031 835.664062 594.625 823.425781 584.085938 817.265625 Z M 584.074219 817.253906 " fill-opacity="1" fill-rule="nonzero"/><path fill="#f77014" d="M 991.394531 839.398438 C 984.644531 827.101562 970.019531 824.644531 957.171875 825.355469 C 943.511719 826.117188 930.203125 832.511719 925.679688 846.378906 C 921.320312 859.742188 927.160156 874.105469 939.222656 881.097656 C 942.332031 882.898438 945.878906 883.960938 949.515625 884.363281 C 949.859375 884.5 950.199219 884.636719 950.539062 884.761719 C 961.988281 888.847656 975.910156 886.917969 985.066406 878.6875 C 995.300781 869.484375 998.042969 851.523438 991.382812 839.386719 Z M 991.394531 839.398438 " fill-opacity="1" fill-rule="nonzero"/><path fill="#ffffff" d="M 640.46875 282.433594 C 630.375 267.886719 614.484375 257.132812 596.992188 253.957031 C 588.441406 252.40625 583.371094 263.160156 591.007812 268.152344 C 603.808594 276.535156 615.996094 285.429688 628.105469 294.789062 C 635.269531 300.324219 645.429688 289.570312 640.46875 282.425781 Z M 640.46875 282.433594 " fill-opacity="0.33" fill-rule="nonzero"/><path fill="#ffffff" d="M 662.0625 302.34375 C 661.730469 300.949219 661.089844 299.730469 660.140625 298.699219 C 659.382812 297.527344 658.386719 296.609375 657.128906 295.9375 C 655.902344 295.160156 654.566406 294.730469 653.140625 294.660156 C 651.71875 294.339844 650.285156 294.40625 648.863281 294.855469 C 646.269531 295.695312 643.761719 297.304688 642.445312 299.789062 C 642.085938 300.648438 641.726562 301.496094 641.363281 302.355469 C 640.855469 304.253906 640.855469 306.15625 641.363281 308.058594 C 641.460938 308.601562 641.570312 309.148438 641.667969 309.695312 C 642.183594 311.539062 643.109375 313.136719 644.453125 314.480469 C 645.808594 315.828125 647.410156 316.765625 649.242188 317.269531 C 649.28125 317.28125 649.320312 317.289062 649.359375 317.300781 C 652.976562 318.324219 657.089844 317.25 659.722656 314.558594 C 659.753906 314.53125 659.78125 314.5 659.8125 314.472656 C 661.15625 313.117188 662.09375 311.519531 662.597656 309.683594 C 663.117188 307.765625 663.117188 305.835938 662.597656 303.914062 L 662.042969 302.34375 Z M 662.0625 302.34375 " fill-opacity="0.33" fill-rule="nonzero"/><path fill="#ffffff" d="M 1005.519531 633.707031 C 1006.789062 625.722656 1006.875 617.914062 1005.996094 609.878906 C 1005.355469 603.980469 1001.746094 598.824219 995.878906 597.800781 C 995.417969 597.605469 994.941406 597.417969 994.425781 597.28125 C 988.585938 595.671875 983.054688 599.25 981.222656 604.78125 C 977.050781 617.347656 968.519531 643.867188 986.878906 649.082031 C 997.390625 652.066406 1004.078125 642.714844 1005.511719 633.726562 Z M 1005.519531 633.707031 " fill-opacity="0.33" fill-rule="nonzero"/><path fill="#ffffff" d="M 1011.585938 662.3125 C 1010.160156 660.890625 1007.832031 659.828125 1005.792969 659.914062 C 1003.675781 660.011719 1001.472656 660.703125 1000 662.3125 C 998.589844 663.851562 997.449219 665.949219 997.601562 668.105469 C 997.789062 670.777344 997.660156 673.835938 999.113281 676.148438 C 1002.253906 681.148438 1009.34375 681.148438 1012.480469 676.148438 C 1013.925781 673.847656 1013.796875 670.765625 1013.992188 668.105469 C 1014.140625 666.09375 1012.980469 663.695312 1011.59375 662.3125 Z M 1011.585938 662.3125 " fill-opacity="0.33" fill-rule="nonzero"/><path fill="#ffffff" d="M 423.027344 805.359375 C 420.941406 801.050781 416.59375 800.074219 412.75 801.214844 C 410.945312 801.488281 409.269531 802.40625 408.042969 804.042969 C 406.285156 805.859375 405.261719 808.296875 405.664062 811.0625 C 404.25 818.042969 404.113281 825.105469 405.214844 832.210938 C 406.421875 839.992188 410.011719 850.152344 419.507812 850.152344 C 430.027344 850.152344 431.304688 838.03125 430.457031 830.152344 C 429.53125 821.554688 426.78125 813.128906 423.027344 805.351562 Z M 423.027344 805.359375 " fill-opacity="0.33" fill-rule="nonzero"/><path fill="#ffffff" d="M 415.402344 792.996094 C 420.492188 793.679688 424.605469 789.847656 424.839844 784.816406 C 424.9375 782.75 425.035156 780.683594 425.125 778.617188 C 425.308594 774.6875 421.972656 771.34375 418.269531 770.847656 C 414.671875 770.359375 410.292969 772.628906 409.589844 776.511719 C 409.222656 778.539062 408.851562 780.566406 408.480469 782.605469 C 408.0625 784.914062 408.21875 786.941406 409.320312 789.019531 C 410.527344 791.3125 412.925781 792.667969 415.402344 792.996094 Z M 415.402344 792.996094 " fill-opacity="0.33" fill-rule="nonzero"/><path fill="#000000" d="M 796.6875 764.226562 C 789.6875 775.925781 776.371094 783.804688 762.632812 783.617188 C 748.867188 783.421875 735.675781 774.667969 728.644531 763.085938 C 723.710938 754.964844 712.558594 762.050781 716.203125 770.359375 C 724.207031 788.601562 742.859375 800.203125 762.640625 800.757812 C 782.582031 801.324219 801.523438 789.984375 811.089844 772.640625 C 816.277344 763.242188 802.21875 755.011719 796.699219 764.226562 Z M 796.6875 764.226562 " fill-opacity="1" fill-rule="nonzero"/><path fill="#000000" d="M 662.589844 728.335938 C 654.507812 721.699219 644.417969 718.402344 633.992188 719.980469 C 613.871094 723.015625 601.15625 744.132812 606.089844 763.4375 C 607.355469 768.390625 612.867188 771.382812 617.730469 770.046875 C 623.152344 768.554688 625.09375 763.484375 624.339844 758.40625 C 623.132812 750.3125 631.207031 741.179688 638.109375 740.574219 C 642.28125 740.203125 646.445312 741.859375 649.757812 744.902344 C 654.117188 748.890625 654.234375 754.457031 658.066406 759.136719 C 663.203125 765.40625 671.648438 760.773438 674.113281 754.894531 C 677.898438 745.867188 669.230469 733.789062 662.597656 728.335938 Z M 662.589844 728.335938 " fill-opacity="1" fill-rule="nonzero"/><path fill="#000000" d="M 883.636719 723.570312 C 865.972656 721.777344 848.976562 734.382812 845.332031 751.679688 C 843.136719 762.070312 857.539062 765.914062 861.125 756.035156 C 864.03125 748.050781 873.867188 741.898438 882.3125 743.214844 C 891.019531 744.582031 896.683594 753.296875 896.984375 761.417969 C 897.472656 774.667969 917.148438 774.707031 917.597656 761.417969 C 918.238281 742.359375 902.289062 725.472656 883.636719 723.578125 Z M 883.636719 723.570312 " fill-opacity="1" fill-rule="nonzero"/><g clip-path="url(#fef6c5ac23)"><path fill="#f77014" d="M 449.015625 1163.191406 C 448.25 1157.191406 444.324219 1152.714844 436.554688 1155.007812 C 433.371094 1155.933594 431.007812 1158.007812 428.425781 1159.882812 C 423.441406 1163.464844 419.476562 1168.285156 416.929688 1173.871094 C 415.964844 1175.941406 414.855469 1177.945312 413.636719 1180.328125 C 412.964844 1179.527344 412.582031 1179.144531 412.292969 1178.707031 C 409.363281 1174.234375 405.417969 1170.832031 400.796875 1168.285156 C 398.667969 1167.121094 396.285156 1166.320312 393.9375 1165.628906 C 393.046875 1165.375 391.648438 1165.558594 390.957031 1166.101562 C 388.355469 1168.15625 386.683594 1170.941406 386.84375 1174.324219 C 386.953125 1176.6875 387.300781 1179.125 388.046875 1181.363281 C 391.355469 1191.113281 395.976562 1200.0625 403.925781 1206.992188 C 407.324219 1209.957031 410.5625 1213.101562 413.785156 1216.269531 C 416.949219 1219.359375 420.496094 1222.050781 424.332031 1224.269531 C 427.898438 1226.34375 430.136719 1225.816406 431.898438 1222.160156 C 433.628906 1218.578125 435.15625 1214.902344 436.757812 1211.265625 C 440.484375 1202.824219 443.085938 1194.003906 445.304688 1185.074219 C 446.503906 1180.179688 447.542969 1175.234375 448.46875 1170.285156 C 448.886719 1167.941406 449.304688 1165.484375 449.015625 1163.191406 Z M 449.015625 1163.191406 " fill-opacity="1" fill-rule="nonzero"/></g><g clip-path="url(#a2564b067a)"><g transform="matrix(1, 0, 0, 1, 1059, 1154)"><g clip-path="url(#4fe691da03)"><g clip-path="url(#9875b2e73a)"><path fill="#f77014" d="M 0.476562 9.191406 C 1.242188 3.191406 5.171875 -1.285156 12.9375 1.007812 C 16.121094 1.933594 18.484375 4.007812 21.066406 5.882812 C 26.050781 9.464844 30.015625 14.285156 32.5625 19.871094 C 33.527344 21.941406 34.636719 23.945312 35.855469 26.328125 C 36.527344 25.527344 36.910156 25.144531 37.199219 24.707031 C 40.128906 20.234375 44.078125 16.832031 48.695312 14.285156 C 50.824219 13.121094 53.207031 12.320312 55.554688 11.628906 C 56.445312 11.375 57.84375 11.558594 58.535156 12.101562 C 61.136719 14.15625 62.8125 16.941406 62.648438 20.324219 C 62.539062 22.6875 62.191406 25.125 61.445312 27.363281 C 58.136719 37.113281 53.515625 46.0625 45.566406 52.992188 C 42.167969 55.957031 38.929688 59.101562 35.710938 62.269531 C 32.542969 65.359375 28.996094 68.050781 25.160156 70.269531 C 21.59375 72.34375 19.359375 71.816406 17.59375 68.160156 C 15.863281 64.578125 14.335938 60.902344 12.738281 57.265625 C 9.007812 48.824219 6.40625 40.003906 4.1875 31.074219 C 2.988281 26.179688 1.949219 21.234375 1.023438 16.285156 C 0.605469 13.941406 0.1875 11.484375 0.476562 9.191406 Z M 0.476562 9.191406 " fill-opacity="1" fill-rule="nonzero"/></g></g></g></g><g clip-path="url(#cb213c97bc)"><path fill="#f77014" d="M 1058.503906 230.703125 C 1056.847656 217.6875 1048.332031 207.984375 1031.488281 212.953125 C 1024.585938 214.964844 1019.460938 219.460938 1013.859375 223.523438 C 1003.050781 231.292969 994.453125 241.746094 988.933594 253.855469 C 986.84375 258.351562 984.4375 262.6875 981.792969 267.855469 C 980.335938 266.121094 979.507812 265.292969 978.875 264.34375 C 972.523438 254.644531 963.964844 247.265625 953.949219 241.746094 C 949.332031 239.222656 944.167969 237.484375 939.078125 235.988281 C 937.148438 235.433594 934.109375 235.828125 932.609375 237.011719 C 926.972656 241.46875 923.34375 247.503906 923.699219 254.839844 C 923.933594 259.96875 924.683594 265.253906 926.300781 270.105469 C 933.480469 291.242188 943.496094 310.648438 960.730469 325.675781 C 968.109375 332.105469 975.128906 338.925781 982.109375 345.789062 C 988.972656 352.496094 996.664062 358.332031 1004.984375 363.144531 C 1012.714844 367.640625 1017.566406 366.496094 1021.390625 358.570312 C 1025.140625 350.800781 1028.453125 342.832031 1031.921875 334.945312 C 1040.007812 316.644531 1045.648438 297.515625 1050.460938 278.148438 C 1053.0625 267.539062 1055.3125 256.8125 1057.324219 246.085938 C 1058.230469 240.996094 1059.136719 235.671875 1058.503906 230.703125 Z M 1058.503906 230.703125 " fill-opacity="1" fill-rule="nonzero"/></g></svg>